<svg width="24" height="24" viewBox="0 0 24 24" fill="none" xmlns="http://www.w3.org/2000/svg">
<path d="M21.8538 13.163V14.2079C21.8538 14.49 21.6344 14.7199 21.3418 14.7304H19.8162C19.2624 14.7304 18.7608 14.3228 18.719 13.7795C18.6877 13.4555 18.8131 13.1525 19.022 12.9435C19.2101 12.745 19.4714 12.6405 19.7535 12.6405H21.3313C21.6344 12.651 21.8538 12.8808 21.8538 13.163Z" fill="#B0B7C3"/>
<path d="M18.2382 12.1703C17.7158 12.6824 17.465 13.4452 17.674 14.2393C17.9457 15.2111 18.8965 15.8276 19.8997 15.8276H20.8088C21.3835 15.8276 21.8537 16.2978 21.8537 16.8725V17.0711C21.8537 19.2341 20.0878 21 17.9248 21H5.92894C3.76593 21 2 19.2341 2 17.0711V10.0387C2 8.75342 2.61651 7.61444 3.5674 6.90389C4.2257 6.40232 5.04075 6.10974 5.92894 6.10974H17.9248C20.0878 6.10974 21.8537 7.87568 21.8537 10.0387V10.4985C21.8537 11.0732 21.3835 11.5434 20.8088 11.5434H19.7429C19.1578 11.5434 18.6249 11.7733 18.2382 12.1703Z" fill="#B0B7C3"/>
<path d="M16.3679 3.94671C16.65 4.22884 16.4097 4.66771 16.0126 4.66771L7.98753 4.65726C7.52776 4.65726 7.28743 4.093 7.62181 3.76907L9.31459 2.06583C10.7461 0.644723 13.0659 0.644723 14.4975 2.06583L16.3261 3.91536C16.3365 3.92581 16.3574 3.93626 16.3679 3.94671Z" fill="#B0B7C3"/>
</svg>
