<svg width="24" height="24" viewBox="0 0 24 24" fill="none" xmlns="http://www.w3.org/2000/svg">
<path d="M11.32 2H5.08998C3.09998 2 2.09998 3.01 2.09998 5.02V21H7.49998V17.25C7.49998 16.84 7.83998 16.5 8.24998 16.5C8.65998 16.5 8.99998 16.83 8.99998 17.25V21H14.3V5.02C14.3 3.01 13.31 2 11.32 2ZM10.75 11.75H5.79998C5.38998 11.75 5.04998 11.41 5.04998 11C5.04998 10.59 5.38998 10.25 5.79998 10.25H10.75C11.16 10.25 11.5 10.59 11.5 11C11.5 11.41 11.16 11.75 10.75 11.75ZM10.75 8H5.79998C5.38998 8 5.04998 7.66 5.04998 7.25C5.04998 6.84 5.38998 6.5 5.79998 6.5H10.75C11.16 6.5 11.5 6.84 11.5 7.25C11.5 7.66 11.16 8 10.75 8Z" fill="#B0B7C3"/>
<path d="M23 20.25H20.73V17.25C21.68 16.94 22.37 16.05 22.37 15V13C22.37 11.69 21.3 10.62 19.99 10.62C18.68 10.62 17.61 11.69 17.61 13V15C17.61 16.04 18.29 16.92 19.22 17.24V20.25H1C0.59 20.25 0.25 20.59 0.25 21C0.25 21.41 0.59 21.75 1 21.75H19.93C19.95 21.75 19.96 21.76 19.98 21.76C20 21.76 20.01 21.75 20.03 21.75H23C23.41 21.75 23.75 21.41 23.75 21C23.75 20.59 23.41 20.25 23 20.25Z" fill="#B0B7C3"/>
</svg>
