<svg width="24" height="24" viewBox="0 0 24 24" fill="none" xmlns="http://www.w3.org/2000/svg">
<path d="M21.5022 5.7006C20.0052 5.55184 18.5082 5.44026 17.0019 5.35658V5.34728L16.7974 4.13854C16.6579 3.28312 16.4533 2 14.2776 2H11.8415C9.67511 2 9.47055 3.22734 9.32178 4.12924L9.12652 5.31939C8.26181 5.37517 7.39709 5.43096 6.53238 5.51464L4.63559 5.7006C4.24507 5.7378 3.96613 6.08182 4.00332 6.46304C4.04052 6.84426 4.37524 7.1232 4.76576 7.08601L6.66255 6.90005C11.5347 6.41655 16.444 6.60251 21.372 7.0953C21.3999 7.0953 21.4185 7.0953 21.4464 7.0953C21.7997 7.0953 22.1065 6.82566 22.1437 6.46304C22.1716 6.08182 21.8927 5.7378 21.5022 5.7006Z" fill="#B0B7C3"/>
<path d="M19.7912 8.40632C19.5681 8.17387 19.2612 8.0437 18.9451 8.0437H7.19244C6.87631 8.0437 6.56018 8.17387 6.34633 8.40632C6.13247 8.63877 6.0116 8.95491 6.03019 9.28034L6.60667 18.8201C6.70895 20.2334 6.83912 22 10.0841 22H16.0534C19.2984 22 19.4286 20.2427 19.5309 18.8201L20.1074 9.28963C20.126 8.95491 20.0051 8.63877 19.7912 8.40632ZM14.6122 17.3417H11.516C11.1348 17.3417 10.8187 17.0256 10.8187 16.6444C10.8187 16.2631 11.1348 15.947 11.516 15.947H14.6122C14.9935 15.947 15.3096 16.2631 15.3096 16.6444C15.3096 17.0256 14.9935 17.3417 14.6122 17.3417ZM15.3933 13.6225H10.7443C10.3631 13.6225 10.0469 13.3064 10.0469 12.9252C10.0469 12.5439 10.3631 12.2278 10.7443 12.2278H15.3933C15.7745 12.2278 16.0906 12.5439 16.0906 12.9252C16.0906 13.3064 15.7745 13.6225 15.3933 13.6225Z" fill="#B0B7C3"/>
</svg>
