<svg width="24" height="24" viewBox="0 0 24 24" fill="none" xmlns="http://www.w3.org/2000/svg">
<path d="M21.62 8.45C20.57 3.83 16.54 1.75 13 1.75C13 1.75 13 1.75 12.99 1.75C9.45997 1.75 5.41997 3.82 4.36997 8.44C3.19997 13.6 6.35997 17.97 9.21997 20.72C10.28 21.74 11.64 22.25 13 22.25C14.36 22.25 15.72 21.74 16.77 20.72C19.63 17.97 22.79 13.61 21.62 8.45ZM13 13.46C11.26 13.46 9.84997 12.05 9.84997 10.31C9.84997 8.57 11.26 7.16 13 7.16C14.74 7.16 16.15 8.57 16.15 10.31C16.15 12.05 14.74 13.46 13 13.46Z" fill="#B0B7C3"/>
</svg>
