<svg width="24" height="24" viewBox="0 0 24 24" fill="none" xmlns="http://www.w3.org/2000/svg">
<path d="M9.64993 22H15.3499C16.9269 22 18.1999 20.727 18.1999 19.15V5.85C18.1999 4.273 16.9269 3 15.3499 3H9.64993C8.07293 3 6.79993 4.273 6.79993 5.85V19.15C6.79993 20.727 8.07293 22 9.64993 22Z" fill="#B0B7C3"/>
<path d="M5.375 6.73348V18.2665C5.375 18.5705 5.0995 18.789 4.805 18.732C3.399 18.4755 3 17.6585 3 15.6635V9.33648C3 7.34148 3.399 6.52448 4.805 6.26798C5.0995 6.21098 5.375 6.42948 5.375 6.73348Z" fill="#B0B7C3"/>
<path d="M22 9.33648V15.6635C22 17.6585 21.601 18.4755 20.195 18.732C19.9005 18.789 19.625 18.561 19.625 18.2665V6.73348C19.625 6.42948 19.9005 6.21098 20.195 6.26798C21.601 6.52448 22 7.34148 22 9.33648Z" fill="#B0B7C3"/>
</svg>
